<svg xmlns="http://www.w3.org/2000/svg" width="100" height="100" viewBox="0 0 100 100"><rect width="100%" height="100%" fill="#DDDDDD"/><path fill="#999999" d="M48.47 50.66v.47q0 5.44-2.42 8.69-2.43 3.26-7.01 3.26-2.11 0-3.7-.89-1.58-.88-2.68-2.59l-.49 3.01h-5.62V27.57h6.54v13.32q1.05-1.46 2.52-2.25 1.47-.78 3.38-.78 4.63 0 7.06 3.49 2.42 3.49 2.42 9.31m-6.53.47v-.47q0-3.55-1.05-5.63-1.04-2.07-3.56-2.07-1.53 0-2.58.64-1.06.64-1.66 1.83v10.28q.6 1.11 1.67 1.69t2.62.58q2.54 0 3.55-1.78 1.01-1.79 1.01-5.07m9.56 0v-.47q0-5.75 2.51-9.28 2.5-3.52 7.02-3.52 2.04 0 3.59.92t2.65 2.63l.52-3.1h5.66V62.5q0 4.74-3.11 7.33-3.11 2.6-8.66 2.6-1.84 0-3.91-.51-2.06-.51-3.82-1.38l1.22-4.9q1.5.72 3.06 1.09t3.4.37q2.7 0 3.97-1.12t1.27-3.5v-2.21q-1.08 1.37-2.54 2.09t-3.35.72q-4.47 0-6.97-3.29-2.51-3.29-2.51-8.66m6.56-.47v.47q0 3.19 1.08 5.02t3.51 1.83q1.5 0 2.54-.55 1.05-.55 1.68-1.6V45.27q-.63-1.1-1.68-1.71-1.04-.6-2.5-.6-2.4 0-3.51 2.13-1.12 2.13-1.12 5.57"/></svg>