<svg xmlns="http://www.w3.org/2000/svg" width="100" height="100" viewBox="0 0 100 100"><rect width="100%" height="100%" fill="#DDDDDD"/><path fill="#999999" d="M42.29 54.87v.43q0 4.96-2.22 7.94-2.21 2.97-6.39 2.97-1.93 0-3.38-.81-1.44-.81-2.45-2.37l-.45 2.75h-5.13V33.79h5.97v12.16q.97-1.33 2.31-2.05t3.08-.72q4.23 0 6.44 3.19 2.22 3.19 2.22 8.5m-5.97.43v-.43q0-3.24-.95-5.14-.96-1.89-3.25-1.89-1.4 0-2.36.58-.97.58-1.52 1.67v9.39q.55 1.01 1.53 1.54.97.54 2.39.54 2.32 0 3.24-1.63.92-1.64.92-4.63m9.66-11.71h5.56l.24 2.93q1.07-1.6 2.68-2.47t3.72-.87q2.14 0 3.65.94 1.52.95 2.3 2.85 1.03-1.78 2.67-2.78 1.64-1.01 3.85-1.01 3.28 0 5.18 2.27 1.9 2.26 1.9 6.9v13.43h-5.99V52.33q0-2.53-.82-3.51t-2.44-.98q-1.27 0-2.21.56-.93.56-1.48 1.57 0 .39.02.66.02.28.02.57v14.58h-5.97V52.33q0-2.46-.82-3.48-.82-1.01-2.46-1.01-1.21 0-2.12.46-.92.46-1.51 1.3v16.18h-5.97z"/></svg>