<svg xmlns="http://www.w3.org/2000/svg" width="100" height="100" viewBox="0 0 100 100"><rect width="100%" height="100%" fill="#DDDDDD"/><path fill="#999999" d="M33.405 30.205h6.56v5.95h4.09v4.6h-4.09v12.38q0 1.41.58 2.02.59.61 1.57.61.52 0 .89-.06t.87-.19l.56 4.74q-.99.33-1.93.5-.95.17-2.05.17-3.39 0-5.22-1.86-1.83-1.87-1.83-5.91v-12.4h-3.55v-4.6h3.55zm36.74 18.3v.47q0 5.39-2.49 8.67t-6.96 3.28q-1.91 0-3.39-.71-1.49-.7-2.54-2.07v11.65h-6.54v-33.64h5.91l.38 2.87q1.08-1.59 2.6-2.46 1.51-.86 3.53-.86 4.52 0 7.01 3.52 2.49 3.53 2.49 9.28m-6.55.47v-.47q0-3.44-1.15-5.57-1.14-2.13-3.5-2.13-1.49 0-2.53.6-1.04.61-1.65 1.73v10.65q.61 1.03 1.65 1.57t2.57.54q2.38 0 3.49-1.86 1.12-1.87 1.12-5.06"/></svg>