<svg xmlns="http://www.w3.org/2000/svg" width="100" height="100" viewBox="0 0 100 100"><rect width="100%" height="100%" fill="#DDDDDD"/><path fill="#999999" d="m30.86 42.18 2.95 10.72h.07l2.23-10.72h3.06l-3.65 15.64h-2.91L29.74 47.5h-.06l-2.87 10.32H23.9l-3.66-15.64h3.07l2.24 10.71.07.01 2.93-10.72zm19.76 6.72v2.42h-6.55v6.5h-3.13V42.18h10.78v2.42h-7.65v4.3zM59 57.82h-5.37V42.18H59q2.87 0 4.73 1.83t1.86 4.7v2.59q0 2.88-1.86 4.7T59 57.82m-.16-13.22h-2.07v10.81h2.07q1.69 0 2.65-1.13.95-1.14.95-2.98v-2.61q0-1.82-.95-2.95-.96-1.14-2.65-1.14m15.23 13.22h-6.02V42.18h5.28q2.76 0 4.31 1.07 1.55 1.08 1.55 3.22 0 1.08-.58 1.93-.57.86-1.67 1.29 1.41.3 2.11 1.29.71.99.71 2.29 0 2.24-1.48 3.4-1.49 1.15-4.21 1.15m.24-6.92h-3.12v4.51h2.88q1.25 0 1.91-.54.65-.54.65-1.6 0-1.15-.56-1.76t-1.76-.61m-3.12-6.3v4.13h2.25q1.26 0 1.93-.51.68-.52.68-1.51 0-1.08-.68-1.6-.68-.51-2.04-.51z"/></svg>